<svg xmlns="http://www.w3.org/2000/svg" xmlns:svg="http://www.w3.org/2000/svg" xmlns:xlink="http://www.w3.org/1999/xlink" version="1.0" height="550.005pt" width="730pt" viewBox="184.99999999999994 -3.000000000000007 738 556.005"><defs><style type="text/css">
            @font-face {
                font-family: 'lt_regular';
                src: url('https://app.creately.com/d/assets/fonts/lato/lt-regular-webfont.woff2') format('woff2'),
                    url('https://app.creately.com/d/assets/fonts/lato/lt-regular-webfont.woff') format('woff');
                font-weight: normal;
                font-style: normal;
            }
            @font-face {
                font-family: 'noto_regular';
                src: url('https://app.creately.com/d/assets/fonts/noto/noto-regular.woff') format('woff'),
                     url('https://app.creately.com/d/assets/fonts/noto/noto-regular.woff2') format('woff2');
                font-weight: normal;
                font-style: normal;
            }
        p {
            margin: 0;
        }
        </style></defs><defs>
        <style>
            span{ display: inline-block; }
            
        </style>
        
        </defs><g id="5LRpvaOYYde"><g transform="translate(189.99999999999994 9.999999999999993)"><path d="M 20,40 L 20,40 L 20,40 A 20 20 0 0 1 0 20.000000000000004 L 0,20 L 0,20.000000000000004 A 20 20 0 0 1 20 0 L 80,0 L 80,0 L 80,0 A 20 20 0 0 1 100 20 L 100,20 L 100,20 A 20 20 0 0 1 80 40 L 20,40 Z" fill="rgb(236,74,66)" stroke="#EC4A42" stroke-width="2" stroke-linecap="round" stroke-linejoin="round" stroke-dasharray="0 0"/></g><g transform="translate(202.73499999999996, 19.999999999999993) rotate(0, 37.265, 10)" width="74.53" height="20"><text text-decoration="none" x="15.986874999999998" fill="#ffffff" font-size="11pt" font-family="lt_regular" y="16">Página </text><text text-decoration="none" x="19.088437499999998" fill="#ffffff" font-size="11pt" font-family="lt_regular" y="37">inicial</text><text text-decoration="none" x="55.5415625" fill="#4b4b4b" font-size="10pt" font-family="noto_regular" y="37"/></g></g><g id="Q6ryqjCl8gr"><g transform="translate(400.0000000000001 0)"><rect x="0" y="0" width="120" height="60" fill="rgb(45,148,228)" stroke="#2D94E4" stroke-width="2" stroke-linecap="round" stroke-linejoin="round" stroke-dasharray="0 0"/></g><g transform="translate(413.6800000000001, 20) rotate(0, 46.32, 10)" width="92.64" height="20"><text text-decoration="none" x="15.198124999999997" fill="#ffffff" font-size="11pt" font-family="lt_regular" y="16">Página </text><text text-decoration="none" x="61.604375" fill="#ffffff" font-size="11pt" font-family="lt_regular" y="16">de </text><text text-decoration="none" x="17.307499999999997" fill="#ffffff" font-size="11pt" font-family="lt_regular" y="37">produtos</text><text text-decoration="none" x="75.4325" fill="#4b4b4b" font-size="10pt" font-family="noto_regular" y="37"/></g></g><g id="ga4671HpHhf"><g transform="translate(600 -7.105427357601002e-15)"><rect x="0" y="0" width="120" height="60" fill="rgb(45,148,228)" stroke="#2D94E4" stroke-width="2" stroke-linecap="round" stroke-linejoin="round" stroke-dasharray="0 0"/></g><g transform="translate(614.31, 19.999999999999993) rotate(0, 45.69, 10)" width="91.38" height="20"><text text-decoration="none" x="14.568124999999995" fill="#ffffff" font-size="11pt" font-family="lt_regular" y="16">Página </text><text text-decoration="none" x="60.974374999999995" fill="#ffffff" font-size="11pt" font-family="lt_regular" y="16">de </text><text text-decoration="none" x="3.521249999999995" fill="#ffffff" font-size="11pt" font-family="lt_regular" y="37">caraterísticas</text><text text-decoration="none" x="87.95875" fill="#4b4b4b" font-size="10pt" font-family="noto_regular" y="37"/></g></g><g id="O9XT1cS9CCr"><g transform="translate(800 0)"><rect x="0" y="0" width="120" height="60" fill="rgb(45,148,228)" stroke="#2D94E4" stroke-width="2" stroke-linecap="round" stroke-linejoin="round" stroke-dasharray="0 0"/></g><g transform="translate(819.665, 9.995000000000001) rotate(0, 40.335, 20.005)" width="80.67" height="40.01"><text text-decoration="none" x="0" fill="#ffffff" font-size="11pt" font-family="lt_regular" y="16">Testemunhos </text><text text-decoration="none" x="5.939687499999998" fill="#ffffff" font-size="11pt" font-family="lt_regular" y="37">de </text><text text-decoration="none" x="25.627187499999998" fill="#ffffff" font-size="11pt" font-family="lt_regular" y="37">clientes</text><text text-decoration="none" x="74.83031249999999" fill="#4b4b4b" font-size="10pt" font-family="noto_regular" y="37"/></g></g><g id="PHbQ9pqed1j"><g transform="translate(399.9999999999999 150)"><rect x="0" y="0" width="120" height="60" fill="rgb(45,148,228)" stroke="#2D94E4" stroke-width="2" stroke-linecap="round" stroke-linejoin="round" stroke-dasharray="0 0"/></g><g transform="translate(412.9649999999999, 170) rotate(0, 47.035, 10)" width="94.07" height="20"><text text-decoration="none" x="15.913124999999994" fill="#ffffff" font-size="11pt" font-family="lt_regular" y="16">Página </text><text text-decoration="none" x="62.319374999999994" fill="#ffffff" font-size="11pt" font-family="lt_regular" y="16">de </text><text text-decoration="none" x="22.999062499999994" fill="#ffffff" font-size="11pt" font-family="lt_regular" y="37">compra</text><text text-decoration="none" x="71.1709375" fill="#4b4b4b" font-size="10pt" font-family="noto_regular" y="37"/></g></g><g id="78DrCTrIJwM"><g transform="translate(600 150)"><rect x="0" y="0" width="120" height="60" fill="rgb(45,148,228)" stroke="#2D94E4" stroke-width="2" stroke-linecap="round" stroke-linejoin="round" stroke-dasharray="0 0"/></g><g transform="translate(620.41, 170) rotate(0, 39.59, 10)" width="79.18" height="20"><text text-decoration="none" x="8.468125" fill="#ffffff" font-size="11pt" font-family="lt_regular" y="16">Página </text><text text-decoration="none" x="54.874375" fill="#ffffff" font-size="11pt" font-family="lt_regular" y="16">de </text><text text-decoration="none" x="18.17125" fill="#ffffff" font-size="11pt" font-family="lt_regular" y="37">preços</text><text text-decoration="none" x="61.10875" fill="#4b4b4b" font-size="10pt" font-family="noto_regular" y="37"/></g></g><g id="v71PjHH0ECy"><g transform="translate(800 150)"><rect x="0" y="0" width="120" height="60" fill="rgb(254,190,50)" stroke="#BB881A" stroke-width="2" stroke-linecap="round" stroke-linejoin="round" stroke-dasharray="0 0"/></g><g transform="translate(825.36, 170) rotate(0, 34.64, 10)" width="69.28" height="20"><text text-decoration="none" x="3.5181249999999977" fill="#ffffff" font-size="11pt" font-family="lt_regular" y="16">Página </text><text text-decoration="none" x="49.924375" fill="#ffffff" font-size="11pt" font-family="lt_regular" y="16">de </text><text text-decoration="none" x="13.807187499999998" fill="#ffffff" font-size="11pt" font-family="lt_regular" y="37">planos</text><text text-decoration="none" x="55.5728125" fill="#4b4b4b" font-size="10pt" font-family="noto_regular" y="37"/></g></g><g id="VjPLmW0Vj4b"><g transform="translate(360 300)"><path d="M 99.99999999999999,0 L 0,50 L 99.99999999999999,100 L 199.99999999999997,50 L 99.99999999999999,0 Z" fill="rgb(113,191,133)" stroke="#71BF85" stroke-width="2" stroke-linecap="round" stroke-linejoin="round" stroke-dasharray="0 0"/></g><g transform="translate(403.815, 329.995) rotate(0, 56.185, 20.005)" width="112.37" height="40.01"><text text-decoration="none" x="1.0318749999999994" fill="#ffffff" font-size="11pt" font-family="lt_regular" y="16">O </text><text text-decoration="none" x="16.51625" fill="#ffffff" font-size="11pt" font-family="lt_regular" y="16">cliente </text><text text-decoration="none" x="63.14125" fill="#ffffff" font-size="11pt" font-family="lt_regular" y="16">efectua </text><text text-decoration="none" x="13.2428125" fill="#ffffff" font-size="11pt" font-family="lt_regular" y="37">uma </text><text text-decoration="none" x="44.4928125" fill="#ffffff" font-size="11pt" font-family="lt_regular" y="37">compra?</text><text text-decoration="none" x="99.2271875" fill="#4b4b4b" font-size="10pt" font-family="noto_regular" y="37"/></g></g><g id="Yp5KVjK9OMi"><g transform="translate(700 320)"><rect x="0" y="0" width="120" height="60" fill="rgb(45,148,228)" stroke="#2D94E4" stroke-width="2" stroke-linecap="round" stroke-linejoin="round" stroke-dasharray="0 0"/></g><g transform="translate(725.42, 329.995) rotate(0, 34.58, 20.005)" width="69.16" height="40.01"><text text-decoration="none" x="3.4581249999999955" fill="#ffffff" font-size="11pt" font-family="lt_regular" y="16">Página </text><text text-decoration="none" x="49.864374999999995" fill="#ffffff" font-size="11pt" font-family="lt_regular" y="16">de </text><text text-decoration="none" x="0" fill="#ffffff" font-size="11pt" font-family="lt_regular" y="37">agradecimento</text><text text-decoration="none" x="95.46875" fill="#4b4b4b" font-size="10pt" font-family="noto_regular" y="37"/></g></g><g id="hZA3NrdTKwL"><g transform="translate(400.0000000000001 489.99999999999994)"><rect x="0" y="0" width="120" height="60" fill="rgb(45,148,228)" stroke="#2D94E4" stroke-width="2" stroke-linecap="round" stroke-linejoin="round" stroke-dasharray="0 0"/></g><g transform="translate(423.3250000000001, 489.995) rotate(0, 36.675, 30.005)" width="73.35" height="60.01"><text text-decoration="none" x="6.037499999999994" fill="#ffffff" font-size="11pt" font-family="lt_regular" y="16">Popup </text><text text-decoration="none" x="51.474999999999994" fill="#ffffff" font-size="11pt" font-family="lt_regular" y="16">de </text><text text-decoration="none" x="9.006249999999994" fill="#ffffff" font-size="11pt" font-family="lt_regular" y="37">intenção </text><text text-decoration="none" x="10.568749999999994" fill="#ffffff" font-size="11pt" font-family="lt_regular" y="58">de </text><text text-decoration="none" x="30.256249999999994" fill="#ffffff" font-size="11pt" font-family="lt_regular" y="58">saída </text><text text-decoration="none" x="23.045312499999994" fill="#ffffff" font-size="11pt" font-family="lt_regular" y="79">com </text><text text-decoration="none" x="7.068749999999994" fill="#ffffff" font-size="11pt" font-family="lt_regular" y="100">desconto</text><text text-decoration="none" x="66.38125" fill="#4b4b4b" font-size="10pt" font-family="noto_regular" y="100"/></g></g><g id="AtAA85m2Aqp"><g><path d="M 289.99999999999994,29.999999999999993 L 335,29.999999999999993 Q 335,29.999999999999993 345,29.999999999999996 Q 355,30 355,30 L 400.00000000000006,30" fill="none" stroke="#2D94E4" stroke-width="2" stroke-linecap="round" stroke-linejoin="round" stroke-dasharray="0 0"/><path d="M 400.00000000000006,30 L 391.304347826087,24.25 L 391.304347826087,35.75 Z" fill="rgb(45,148,228)" stroke="#2D94E4" stroke-width="2" stroke-linecap="round" stroke-linejoin="round"/></g></g><g id="ft2aA3Mw1Zv"><g><path d="M 520,30 L 552.25,30 Q 552.2682792745821,30 562.25,30.01827927458214 Q 572.2317207254179,30.036558549164283 572.25,30.036558549164283 L 604.5,30.036558549164283" fill="none" stroke="#2D94E4" stroke-width="2" stroke-linecap="round" stroke-linejoin="round" stroke-dasharray="0 0"/><path d="M 604.5,30.036558549164283 L 595.804347826087,24.286558549164283 L 595.804347826087,35.78655854916428 Z" fill="rgb(45,148,228)" stroke="#2D94E4" stroke-width="2" stroke-linecap="round" stroke-linejoin="round"/></g></g><g id="R6KLhmVq1rW"><g><path d="M 720,29.999999999999993 L 750,29.999999999999993 Q 750,29.999999999999993 760,29.999999999999996 Q 770,30 770,30 L 800,30" fill="none" stroke="#2D94E4" stroke-width="2" stroke-linecap="round" stroke-linejoin="round" stroke-dasharray="0 0"/><path d="M 800,30 L 791.304347826087,24.25 L 791.304347826087,35.75 Z" fill="rgb(45,148,228)" stroke="#2D94E4" stroke-width="2" stroke-linecap="round" stroke-linejoin="round"/></g></g><g id="JDDADx7UF1k"><mask id="aa2a5" x="846" y="46" width="28" height="118" maskUnits="userSpaceOnUse"><rect x="846" y="46" width="28" height="118" fill="white"/>undefined</mask><g mask="url(#aa2a5)"><path d="M 860,60 L 860,150" fill="none" stroke="#2D94E4" stroke-width="2" stroke-linecap="round" stroke-linejoin="round" stroke-dasharray="0 0"/><path d="M 860,150 L 865.75,141.30434782608697 L 854.25,141.30434782608697 Z" fill="rgb(45,148,228)" stroke="#2D94E4" stroke-width="2" stroke-linecap="round" stroke-linejoin="round"/></g>undefined</g><g id="lzbydojOdlf"><g><path d="M 800,180 L 720,180" fill="none" stroke="#2D94E4" stroke-width="2" stroke-linecap="round" stroke-linejoin="round" stroke-dasharray="0 0"/><path d="M 720,180 L 728.695652173913,185.75 L 728.695652173913,174.25 Z" fill="rgb(45,148,228)" stroke="#2D94E4" stroke-width="2" stroke-linecap="round" stroke-linejoin="round"/></g></g><g id="L0zs9vxFwKn"><mask id="18533" x="505.9999999999999" y="166" width="108.00000000000011" height="28" maskUnits="userSpaceOnUse"><rect x="505.9999999999999" y="166" width="108.00000000000011" height="28" fill="white"/>undefined</mask><g mask="url(#18533)"><path d="M 600,180 L 519.9999999999999,180" fill="none" stroke="#2D94E4" stroke-width="2" stroke-linecap="round" stroke-linejoin="round" stroke-dasharray="0 0"/><path d="M 519.9999999999999,180 L 528.6956521739129,185.75 L 528.6956521739129,174.25 Z" fill="rgb(45,148,228)" stroke="#2D94E4" stroke-width="2" stroke-linecap="round" stroke-linejoin="round"/></g>undefined</g><g id="1SJNDmjYFVI"><g><path d="M 459.9999999999999,210 L 459.9999999999999,245 Q 459.9999999999999,245.00000000000006 459.99999999999994,255 Q 460,264.99999999999994 460,265 L 460,300" fill="none" stroke="#2D94E4" stroke-width="2" stroke-linecap="round" stroke-linejoin="round" stroke-dasharray="0 0"/><path d="M 460,300 L 465.75,291.30434782608694 L 454.25,291.30434782608694 Z" fill="rgb(45,148,228)" stroke="#2D94E4" stroke-width="2" stroke-linecap="round" stroke-linejoin="round"/></g></g><g id="49311a0SykO"><g transform="translate(610 330)"><rect x="0" y="0" width="240" height="120.00000000000011" fill="rgba(255,255,255,0.01)" stroke="rgba(255,255,255,0.01)"/></g><g transform="translate(620, 340) rotate(0, 0, 0)" width="21.12" height="18.4"><text text-decoration="none" x="0" fill="#4b4b4b" font-size="10pt" font-family="lt_regular" y="14">Sim</text><text text-decoration="none" x="21.390625" fill="#4b4b4b" font-size="10pt" font-family="noto_regular" y="14"/></g></g><g id="TSq7gBTThHL"><g><path d="M 560,350 L 579.25,350 Q 579.3708997634643,350 589.25,350.1208997634643 Q 599.1291002365356,350.2417995269287 599.25,350.2417995269287 L 618.5,350.2417995269287" fill="none" stroke="#2D94E4" stroke-width="2" stroke-linecap="round" stroke-linejoin="round" stroke-dasharray="0 0"/><path d="M 618.5,350.2417995269287 L 609.804347826087,344.4917995269287 L 609.804347826087,355.9917995269287 Z" fill="rgb(45,148,228)" stroke="#2D94E4" stroke-width="2" stroke-linecap="round" stroke-linejoin="round"/></g></g><g id="IuwaqcWEclE"><g><path d="M 647.5,350.2417995269287 L 663.75,350.2417995269287 Q 663.8708997634644,350.2417995269287 673.75,350.1208997634643 Q 683.6291002365357,350 683.75,350 L 700,350" fill="none" stroke="#2D94E4" stroke-width="2" stroke-linecap="round" stroke-linejoin="round" stroke-dasharray="0 0"/><path d="M 700,350 L 691.304347826087,344.25 L 691.304347826087,355.75 Z" fill="rgb(45,148,228)" stroke="#2D94E4" stroke-width="2" stroke-linecap="round" stroke-linejoin="round"/></g></g><g id="OIItCVLvOAX"><g transform="translate(440 430)"><rect x="0" y="0" width="260" height="120.00000000000001" fill="rgba(255,255,255,0.01)" stroke="rgba(255,255,255,0.01)"/></g><g transform="translate(450, 440) rotate(0, 0, 0)" width="17.74" height="18.4"><text text-decoration="none" x="0" fill="#4b4b4b" font-size="10pt" font-family="lt_regular" y="14">Não</text><text text-decoration="none" x="24.359375" fill="#4b4b4b" font-size="10pt" font-family="noto_regular" y="14"/></g></g><g id="k0LNsL0TCiI"><g><path d="M 460.5,401 L 460.5,442.3008063080359" fill="none" stroke="#2D94E4" stroke-width="2" stroke-linecap="round" stroke-linejoin="round" stroke-dasharray="0 0"/><path d="M 460.5,442.3008063080359 L 466.25,433.6051541341228 L 454.75,433.6051541341228 Z" fill="rgb(45,148,228)" stroke="#2D94E4" stroke-width="2" stroke-linecap="round" stroke-linejoin="round"/></g></g><g id="eCrKAyxRCcz"><g><path d="M 460,490 L 460.00000000000006,485 Q 460.00000000000006,484.0000000000001 461,475 Q 461,465 461,465 L 461,460" fill="none" stroke="#2D94E4" stroke-width="2" stroke-linecap="round" stroke-linejoin="round" stroke-dasharray="0 0"/><path d="M 460,490 L 465.75,481.30434782608694 L 454.25,481.30434782608694 Z" fill="rgb(45,148,228)" stroke="#2D94E4" stroke-width="2" stroke-linecap="round" stroke-linejoin="round"/></g></g></svg>